<svg xmlns="http://www.w3.org/2000/svg" viewBox="0 0 256 256" role="img" aria-label="Архив Огмы">
  <rect width="256" height="256" fill="#050708"/>
  <circle cx="128" cy="128" r="108" fill="#071011"/>
  <circle cx="128" cy="128" r="102" fill="none" stroke="#173840" stroke-width="13"/>
  <g fill="#74dfc5" stroke="#050708" stroke-width="8" stroke-linejoin="round" stroke-linecap="round">
    <path d="M72 64c-31 4-50 27-50 58 0 24 15 40 36 44-15 7-25 18-27 33h31c2-15 13-27 31-35l21-10-16-24-22 10c-16 7-27 1-27-15 0-18 11-29 30-31 16-2 27 4 36 18l16-23c-13-19-31-28-59-25z"/>
    <path d="M184 64c31 4 50 27 50 58 0 24-15 40-36 44 15 7 25 18 27 33h-31c-2-15-13-27-31-35l-21-10 16-24 22 10c16 7 27 1 27-15 0-18-11-29-30-31-16-2-27 4-36 18l-16-23c13-19 31-28 59-25z"/>
    <path d="M70 148c-34 6-55 27-62 63h34c5-17 18-28 39-33 21-5 34-13 43-25l-22-18c-8 7-18 11-32 13z"/>
    <path d="M186 148c34 6 55 27 62 63h-34c-5-17-18-28-39-33-21-5-34-13-43-25l22-18c8 7 18 11 32 13z"/>
  </g>
  <g fill="#74dfc5" stroke="#050708" stroke-width="8" stroke-linejoin="round">
    <path d="M128 49l22 26-22 18-22-18z"/>
    <path d="M128 82l57 39-57 39-57-39z"/>
    <path d="M128 102l38 26-38 26-38-26z" fill="#071011"/>
    <path d="M128 92l51 35-51 35-51-35z" fill="none"/>
    <path d="M128 105c26 0 43 23 43 23s-17 23-43 23-43-23-43-23 17-23 43-23z"/>
  </g>
  <circle cx="128" cy="128" r="14" fill="#050708"/>
</svg>
